<svg height='300px' width='300px'  fill="#3d3939" xmlns="http://www.w3.org/2000/svg" xmlns:xlink="http://www.w3.org/1999/xlink" version="1.1" x="0px" y="0px" viewBox="0 0 100 100" enable-background="new 0 0 100 100" xml:space="preserve"><path fill="#3d3939" d="M85.184,17.134c-1.525-1.598-4.058-1.657-5.655-0.13L50.057,45.157L20.586,17.004  c-1.597-1.525-4.129-1.468-5.655,0.13c-1.525,1.597-1.468,4.129,0.13,5.655l29.206,27.899L15.061,78.588  c-1.598,1.526-1.655,4.059-0.13,5.655c0.786,0.823,1.839,1.237,2.894,1.237c0.992,0,1.987-0.367,2.762-1.107L50.057,56.22  l29.472,28.153c0.774,0.74,1.769,1.107,2.762,1.107c1.055,0,2.107-0.414,2.894-1.237c1.525-1.597,1.468-4.129-0.13-5.655  L55.848,50.688l29.206-27.899C86.651,21.263,86.709,18.73,85.184,17.134z"></path></svg>