<svg xmlns="http://www.w3.org/2000/svg" width="2133" height="1067" viewBox="0 0 2133 1067">
  <defs>
    <style>
      .cls-1 {
        fill:#fff;
        fill-rule: evenodd;
      }
    </style>
  </defs>
  <path id="NewYork_York_copy" data-name="NewYork York copy" class="cls-1" d="M798.777,811.887L699.046,697.012H681.9v147.9h19.9V731.006l98.884,113.908h18.21v-147.9H798.777V811.887Zm132.128-16.415q0-22.761-11.54-36.314T888.45,745.607q-20.117,0-32.714,13.922t-12.6,36.155q0,14.823,5.982,26.1a48.505,48.505,0,0,0,15.934,17.945Q875,846.4,891.1,846.4a73.7,73.7,0,0,0,20.486-2.541,64.322,64.322,0,0,0,17.628-8.469V816.54a57.988,57.988,0,0,1-35.15,11.858q-13.656,0-22.285-8.258t-9.37-22.233h68.5v-2.435Zm-59.447-26.891q6.615-6.246,16.992-6.247t16.516,6.247q6.139,6.247,6.882,17.786H862.829Q864.839,774.829,871.458,768.581Zm176.592,38.008-24.57-59.077h-14.29l-24.873,59.077L958.8,747.512H938.1l43.381,99.1h6.255l28.44-67.864,28.8,67.864h6.15l43.03-99.1H1073.5ZM1187.2,748l-39.59-50.99h-25.56l54.63,69.663v78.239h21.71V766.675l54.63-69.663h-25.71Zm60.74,13.538q-14.88,14.241-14.88,35.626,0,21.175,14.72,35.308t36.63,14.134q22.65,0,37.58-13.922t14.93-34.991q0-21.7-14.71-36.049-14.73-14.344-36.95-14.345Q1262.8,747.3,1247.94,761.54Zm59.97,12.228q9.42,9.107,9.43,22.975,0,13.974-9.06,22.921-9.045,8.947-23.24,8.946-14.28,0-23.39-8.84t-9.11-22.816q0-14.079,8.9-23.186,8.88-9.1,22.76-9.105Q1298.495,764.663,1307.91,773.768Zm51.67-26.256v97.4h19.37V793.99a33.608,33.608,0,0,1,6.83-21.069q6.825-8.892,16.15-8.893,8.565,0,18.63,9.529l10.16-16.94q-11.85-11.01-22.76-11.01-13.98,0-27.95,22.55l-1.06,1.694V747.512h-19.37Zm104.71,47.7,48.79,49.707h25.84l-50.02-49.76,41.55-47.642h-22.87Zm-20.12,49.707h19.27v-147.9h-19.27v147.9Z"/>
  <path id="ChillFit" class="cls-1" d="M633.6,525c-41.557,56.349-102.836,89.454-169.75,89.454-111.994,0-204.265-90.863-204.265-202.856,0-113.4,92.271-203.56,204.265-203.56,69.731,0,131.715,33.809,170.455,90.158l22.539-22.539c-42.261-61.28-111.289-100.724-192.994-100.724-131.012,0-236.666,104.245-236.666,236.665,0,131.011,105.654,235.257,236.666,235.257,79.592,0,147.915-38.036,192.29-99.315Zm393,121.855V470.759c0-104.245-88.748-185.951-190.88-166.933a168.1,168.1,0,0,0-124.672,93.68V181.972H680.056V646.85h30.992V475.69c2.818-84.523,66.914-145.1,142.985-145.1,77.48,0,141.577,64.1,141.577,141.576V646.85h30.99Zm61.25-345.137V646.85h30.99V301.713h-30.99Zm-7.05-116.22a22.7,22.7,0,0,0,22.54,22.54c12.68,0,23.25-9.861,23.25-22.54,0-11.974-10.57-22.539-23.25-22.539C1091.37,162.954,1080.8,173.519,1080.8,185.493Zm116.91-3.521V646.85h31V181.972h-31Zm109.87,0V646.85h30.99V181.972h-30.99ZM1428.72,646.85V486.96h170.45v-31.7H1428.72V208.033L1639,208V175l-242.68-.072V646.85h32.4Zm239.46-345.137V646.85h30.99V301.713h-30.99Zm-7.05-116.22a22.7,22.7,0,0,0,22.54,22.54c12.68,0,23.25-9.861,23.25-22.54,0-11.974-10.57-22.539-23.25-22.539C1671.7,162.954,1661.13,173.519,1661.13,185.493Zm78.17,140.873h43.67V547.535c0,60.575,41.56,100.723,104.95,100.723v-27.47c-41.55,0-73.25-33.105-73.25-73.253V326.366h76.78V300.3h-76.78V181.972h-31.7V300.3H1739.3v26.062Z"/>
</svg>
